<svg width="23" height="23" viewBox="0 0 23 23" fill="none" xmlns="http://www.w3.org/2000/svg">
<g clip-path="url(#clip0)">
<path d="M11.9157 18.1864C11.2469 18.1761 10.6021 17.9357 10.0899 17.5056L6.71682 14.5349C6.18605 14.0389 5.3744 13.9997 4.7982 14.4421L0.00171992 17.9698V20.2597C-0.0327526 20.874 0.437365 21.3999 1.05165 21.4344C1.08328 21.4362 1.11503 21.4366 1.14672 21.4356H18.1356C18.8164 21.4356 19.4972 20.9405 19.4972 20.2597V14.2564L13.401 17.7841C12.9529 18.0535 12.4386 18.1928 11.9157 18.1864Z" fill="black"/>
<path d="M11.6682 12.1831C12.4202 12.1831 13.0298 11.5735 13.0298 10.8215C13.0298 10.0695 12.4202 9.45987 11.6682 9.45987C10.9162 9.45987 10.3065 10.0695 10.3065 10.8215C10.3065 11.5735 10.9162 12.1831 11.6682 12.1831Z" fill="black"/>
<path d="M22.7155 3.98258C22.518 3.71343 22.2128 3.54391 21.88 3.51838L5.01479 1.56885C4.686 1.5413 4.35786 1.62879 4.08646 1.81643C3.8461 2.02516 3.68269 2.30847 3.62227 2.62103L3.34377 5.03476H18.1356C19.5459 5.06674 20.6862 6.19344 20.735 7.6032V18.5269C20.735 18.465 21.0135 18.4031 21.1373 18.2793C21.3936 18.0781 21.5421 17.7695 21.5396 17.4437L22.994 4.87999C23.0262 4.55546 22.9257 4.23176 22.7155 3.98258Z" fill="black"/>
<path d="M18.136 6.27249H1.14703C0.466224 6.27249 0.00202942 6.92232 0.00202942 7.60312V16.4225L4.08679 13.4518C5.12369 12.6826 6.55815 12.7472 7.52172 13.6065L10.9257 16.5772C11.439 17.013 12.1721 17.0751 12.7514 16.7319L19.4975 12.8019V7.60312C19.4507 6.87665 18.8633 6.30264 18.136 6.27249ZM11.6684 13.4208C10.2328 13.4208 9.06896 12.257 9.06896 10.8214C9.06896 9.3858 10.2327 8.22197 11.6684 8.22197C13.104 8.22197 14.2678 9.38574 14.2678 10.8214C14.2678 12.257 13.104 13.4208 11.6684 13.4208Z" fill="black"/>
</g>
<defs>
<clipPath id="clip0">
<rect width="23" height="23" fill="white"/>
</clipPath>
</defs>
</svg>
